<?xml version="1.0" standalone="no"?>
<!DOCTYPE svg PUBLIC "-//W3C//DTD SVG 1.1//EN" "http://www.w3.org/Graphics/SVG/1.1/DTD/svg11.dtd">
<svg xmlns="http://www.w3.org/2000/svg">
<defs >
<font id="Podkova" horiz-adv-x="550" ><font-face
    font-family="Podkova SemiBold"
    units-per-em="1000"
    panose-1="0 0 0 0 0 0 0 0 0 0"
    ascent="859"
    descent="-249"
    alphabetic="0" />
<glyph unicode=" " horiz-adv-x="243" />
<glyph unicode="!" horiz-adv-x="226" d="M58 599H169L150 193H74L58 599ZM113 128Q142 128 163 106T185 55Q185 26 164 4T113 -18Q82 -18 61 4T40 55Q40 84 61 106T113 128Z" />
<glyph unicode="&quot;" horiz-adv-x="352" d="M203 599H299L275 405H226L203 599ZM54 599H150L126 405H77L54 599Z" />
<glyph unicode="#" horiz-adv-x="619" d="M258 589H337L285 402H406L458 589H537L486 402H609V328H465L426 186H574V112H406L355 -72H275L325 112H205L155 -72H75L126 112H10V186H146L185 328H45V402H206L258 589ZM265 328L226 186H346L385 328H265Z" />
<glyph unicode="$" horiz-adv-x="470" d="M116 96Q137 88 156 83T193 76V256Q115 266 72 309T29 419Q29 466 49 499T106 552T193 574V664H269V575Q299 574 321 569T364 556T406 534L423 408L344 400L331 479Q318 487 303 491T269 495V325L289 322Q362 310 401
274T440 169Q440 92 397 49T268 -1V-83H193V-1Q158 2 128 9T77 24T45 35L28 151L106 161L116 96ZM268 77Q311 85 333 107T356 165Q356 203 334 222T268 244V77ZM193 498Q151 495 131 476T110 423Q110 353 193 337V498Z" />
<glyph unicode="%" horiz-adv-x="788" d="M490 613H573L293 -21H209L490 613ZM194 615Q255 615 293 576T331 436Q331 337 293 298T194 258Q154 258 123 275T75 331T57 436Q57 503 74 542T123 598T194 615ZM194 538Q178 538 165 530T144 500T135 436Q135 395 143
373T165 343T194 335Q210 335 223 343T244 373T253 436Q253 478 245 500T223 530T194 538ZM594 338Q655 338 693 299T731 159Q731 61 693 22T594 -18Q553 -18 522 -2T474 54T456 159Q456 226 473 265T522 321T594 338ZM593 261Q578 261 565 254T543 224T535 159Q535
118 543 96T564 66T593 58Q610 58 623 66T644 96T652 159Q652 201 644 223T623 253T593 261Z" />
<glyph unicode="&amp;" horiz-adv-x="724" d="M487 76Q452 30 399 2T267 -26Q233 -26 196 -18T125 12T72 70T51 163Q51 215 71 250T124 310T194 356Q169 390 155 422T141 484Q141 525 154 551T189 590T235 609T281 615Q319 615 350 602T400 563T419 495Q419 443
389 408T316 343Q347 308 385 273T465 204Q483 246 495 293T517 386L642 426L668 346L592 320Q582 284 568 239T533 150Q577 118 615 91T682 45L637 -31Q620 -18 580 10T487 76ZM243 293Q206 268 179 237T151 163Q151 130 164 109T197 75T236 57T271 51Q326 51
360 72T422 128Q376 165 329 207T243 293ZM283 548Q255 548 243 531T231 486Q231 465 240 443T268 394Q295 413 316 435T338 491Q338 519 325 533T283 548Z" />
<glyph unicode="&apos;" horiz-adv-x="203" d="M55 599H156L140 385H70L55 599Z" />
<glyph unicode="(" horiz-adv-x="241" d="M249 602Q205 559 178 511T138 417T119 330T114 263Q114 236 119 197T137 111T178 16T249 -75L198 -140Q163 -117 130 -77T70 17T28 133T12 263Q12 330 27 393T70 509T130 603T198 667L249 602Z" />
<glyph unicode=")" horiz-adv-x="242" d="M43 667Q78 644 111 604T171 510T214 393T230 263Q230 196 214 134T172 17T112 -77T43 -140L-8 -75Q36 -32 63 16T104 110T122 196T127 263Q127 290 123 330T104 416T63 511T-8 602L43 667Z" />
<glyph unicode="*" horiz-adv-x="428" d="M162 655H259L246 508L384 568L416 476L270 442L365 331L287 273L212 396L138 273L57 329L157 443L14 474L43 568L177 508L162 655Z" />
<glyph unicode="+" horiz-adv-x="484" d="M195 494H289V348H434V263H289V118H195V263H50V348H195V494Z" />
<glyph unicode="," horiz-adv-x="226" d="M89 -131L53 -95Q53 -95 61 -83T81 -53T100 -17Q71 -12 57 7T42 49Q42 81 63 100T116 120Q146 120 169 98T192 44Q192 12 179 -17T146 -70T110 -110T89 -131Z" />
<glyph unicode="-" horiz-adv-x="411" d="M45 269H365V186H45V269Z" />
<glyph unicode="." horiz-adv-x="239" d="M120 128Q149 128 171 106T193 55Q193 26 171 4T120 -18Q90 -18 69 4T47 55Q47 84 68 106T120 128Z" />
<glyph unicode="/" horiz-adv-x="373" d="M301 589H399L73 -131H-26L301 589Z" />
<glyph unicode="0" horiz-adv-x="602" d="M301 607Q354 607 399 592T477 541T529 445T548 294Q548 205 530 145T478 49T399 -2T301 -18Q248 -18 203 -3T125 48T73 144T54 294Q54 384 72 444T124 541T203 592T301 607ZM301 517Q273 517 248 508T204 476T174 409T163
294Q163 224 174 181T204 114T248 81T301 72Q329 72 354 81T398 113T428 180T439 294Q439 365 429 409T399 476T354 508T301 517Z" />
<glyph unicode="1" horiz-adv-x="494" d="M255 599H320L319 89H472V0H56V89H218V448L91 343L33 414L255 599Z" />
<glyph unicode="2" horiz-adv-x="545" d="M60 0L34 83Q102 146 165 200T280 304Q314 336 332 366T351 429Q351 472 323 495T249 519Q212 519 174 502T106 455L43 518Q92 567 145 588T256 610Q313 610 359 589T432 528T459 433Q459 386 427 340T343 248Q301 209
253 170T158 89H389L438 167L513 126L438 0H60Z" />
<glyph unicode="3" horiz-adv-x="515" d="M247 348Q291 348 317 372T344 438Q344 475 316 496T241 519Q202 520 164 505T101 466L36 529Q73 568 127 587T243 607Q337 607 391 562T446 444Q446 413 433 385T398 336T345 306Q403 294 438 257T473 164Q473 109 446
68T369 5T249 -18Q199 -18 160 -9T88 17T27 59L87 133Q126 101 162 86T248 71Q302 71 334 97T367 165Q367 207 331 233T234 259H178V348H247Z" />
<glyph unicode="4" horiz-adv-x="560" d="M216 0V89H329V166H23V234L242 624L322 579L135 251H329V484H431V251L515 252V166H431V89H511V0H216Z" />
<glyph unicode="5" horiz-adv-x="527" d="M174 364Q202 382 231 390T291 398Q345 398 389 375T459 308T486 200Q486 94 424 39T250 -17Q194 -17 140 3T45 65L112 128Q142 99 179 84T255 69Q318 69 351 101T384 193Q384 232 367 259T322 300T261 314Q229 314 196
300T136 257L76 285V589H440V500H174V364Z" />
<glyph unicode="6" horiz-adv-x="559" d="M448 484Q441 489 421 497T376 512T329 519Q285 519 254 501T202 454T171 388T160 314Q187 340 229 359T319 378Q370 378 416 361T491 301T520 182Q520 155 510 121T476 55T406 3T292 -18Q170 -18 112 60T53 291Q53 380
86 451T181 565T327 607Q365 607 398 598T455 577T485 561L448 484ZM307 297Q261 297 222 280T163 235Q169 164 190 128T239 80T299 68Q339 68 365 85T403 129T416 182Q416 241 387 269T307 297Z" />
<glyph unicode="7" horiz-adv-x="507" d="M494 531Q421 437 376 343T311 161T290 0H186Q191 77 210 156T268 321T368 500H131L116 433L26 453L51 589H494V531Z" />
<glyph unicode="8" horiz-adv-x="541" d="M270 607Q327 607 374 589T449 532T477 435Q477 409 466 382T432 335T376 305Q414 296 439 274T477 223T490 163Q490 100 459 60T379 1T271 -18Q213 -18 163 0T81 59T50 163Q50 194 63 223T101 274T165 305Q132 314 110
334T76 382T64 435Q64 494 91 532T166 588T270 607ZM271 261Q214 261 187 232T159 163Q159 120 190 93T270 66Q320 66 351 93T382 163Q382 203 355 232T271 261ZM270 523Q222 523 196 498T169 435Q169 397 195 370T270 343Q319 343 345 370T372 435Q372 473 346
498T270 523Z" />
<glyph unicode="9" horiz-adv-x="556" d="M115 105Q124 100 144 92T190 77T244 70Q286 70 316 86T365 130T393 192T403 261Q376 235 335 216T245 196Q194 196 148 214T73 278T43 402Q43 431 53 466T88 533T157 586T272 607Q393 607 453 528T513 297Q513 213 491
153T429 55T342 0T241 -18Q201 -18 167 -9T110 12T78 28L115 105ZM264 521Q225 521 199 503T161 457T148 396Q148 341 177 309T256 277Q307 277 345 296T401 345Q398 402 385 436T353 489T311 514T264 521Z" />
<glyph unicode=":" horiz-adv-x="227" d="M113 454Q143 454 165 432T187 381Q187 351 165 329T113 307Q83 307 62 329T40 381Q40 410 61 432T113 454ZM113 128Q143 128 165 106T187 55Q187 26 165 4T113 -18Q83 -18 62 4T40 55Q40 84 61 106T113 128Z" />
<glyph unicode=";" horiz-adv-x="223" d="M51 -95Q51 -95 59 -83T79 -52T98 -16Q69 -12 55 7T40 50Q40 82 61 101T114 121Q144 121 167 98T190 44Q190 12 177 -17T144 -70T109 -110T88 -131L51 -95ZM112 454Q141 454 163 432T185 381Q185 351 163 329T112 307Q82
307 61 329T39 381Q39 410 60 432T112 454Z" />
<glyph unicode="&lt;" horiz-adv-x="484" d="M403 531L442 450L161 313V307L442 160L403 80L41 275V349L403 531Z" />
<glyph unicode="=" horiz-adv-x="484" d="M50 351V436H434V351H50ZM50 178V263H434V178H50Z" />
<glyph unicode="&gt;" horiz-adv-x="484" d="M81 531L442 349V275L81 80L41 160L323 307V313L41 450L81 531Z" />
<glyph unicode="?" horiz-adv-x="382" d="M20 565Q44 583 91 595T188 607Q278 607 327 569T377 463Q377 418 352 389T274 332Q240 314 222 302T197 281T190 259Q190 248 197 238T222 213L167 169Q127 195 115 219T103 269Q103 294 112 312T145 348T208 387Q238
403 253 415T274 438T280 466Q280 494 255 511T186 529Q162 529 140 525T99 512L86 429L4 438L20 565ZM185 128Q215 128 237 106T259 55Q259 26 237 4T185 -18Q156 -18 134 4T112 55Q112 85 134 106T185 128Z" />
<glyph unicode="@" horiz-adv-x="776" d="M549 -71Q549 -71 531 -83T477 -107T389 -120Q280 -120 208 -76T99 44T62 213Q62 268 81 326T141 434T245 514T396 545Q475 545 535 520T635 450T697 348T718 226Q718 160 696 116T638 49T564 26Q535 26 514 37T475 68Q471
65 460 56T432 39T389 31Q347 31 313 48T259 103T238 201Q238 249 252 282T291 336T346 366T408 376Q435 376 460 369T503 351T529 335V110Q535 104 543 99T563 94Q578 94 592 106T616 148T626 225Q626 275 613 319T573 395T502 447T396 466Q330 466 276 435T191
348T159 213Q159 142 178 93T231 15T305 -27T391 -40Q419 -40 443 -34T485 -21T507 -12L549 -71ZM452 297Q448 298 436 302T408 306Q369 306 347 281T325 200Q325 148 346 124T397 100Q415 100 425 105T442 114T452 121V297Z" />
<glyph unicode="A" horiz-adv-x="669" d="M8 0V89H105L262 500H171V589H386L569 89H661V0H408V89H465L434 177H228L196 89H256V0H8ZM255 252H408L334 480L255 252Z" />
<glyph unicode="B" horiz-adv-x="579" d="M40 0V89H128V500H40V589H299Q412 589 471 549T531 432Q531 390 510 356T451 302Q495 288 522 252T549 161Q549 88 500 44T350 0H40ZM230 89H338Q388 89 415 110T442 175Q442 215 417 236T344 257H231L230 89ZM231 336H345Q383
336 403 358T423 418Q423 500 310 500H231V336Z" />
<glyph unicode="C" horiz-adv-x="595" d="M445 501Q440 504 424 508T386 517T338 521Q247 521 199 462T150 295Q150 187 200 128T338 68Q363 68 385 73T423 83T445 91L466 175L552 155L524 23Q524 23 501 13T436 -7T338 -18Q250 -18 184 18T81 124T43 295Q43 392
79 462T181 570T337 607Q401 607 443 595T506 571T527 557L553 426L466 407L445 501Z" />
<glyph unicode="D" horiz-adv-x="662" d="M310 589Q457 589 538 509T620 284Q620 151 541 76T318 0H40V89H128V500H40V589H310ZM300 89Q405 89 459 138T513 284Q513 391 462 445T310 500H231V89H300Z" />
<glyph unicode="E" horiz-adv-x="601" d="M41 589H491L547 421L463 392L424 500H232V346H408V258H232V89H448L485 192L569 163L513 0H40V89H129L130 500H41V589Z" />
<glyph unicode="F" horiz-adv-x="575" d="M40 589H491L548 417L464 389L424 500H231V342H389V253H230V89H355V0H40V89H129L130 500H40V589Z" />
<glyph unicode="G" horiz-adv-x="613" d="M553 57Q519 33 489 16T422 -9T334 -18Q250 -18 184 18T81 124T43 295Q43 390 79 460T181 568T340 607Q397 607 445 592T531 548L559 425L473 405L453 494Q429 507 404 514T342 522Q292 522 248 495T177 417T150 295Q150
219 174 169T240 94T333 69Q374 69 401 77T456 102V215H328V298H553V57Z" />
<glyph unicode="H" horiz-adv-x="728" d="M40 589H292V500H232L231 344H497V500H438V589H688V500H600L598 89H687V0H438V89H497V255H231V89H290V0H40V89H129V500H40V589Z" />
<glyph unicode="I" horiz-adv-x="372" d="M41 589H333V500H239L238 89H333V0H40V89H136V500H41V589Z" />
<glyph unicode="J" horiz-adv-x="523" d="M406 238Q406 157 384 100T316 13T200 -18Q159 -18 123 -7T52 20L24 155L111 176L132 81Q150 74 166 71T196 67Q247 67 275 108T303 223V500H176V589H495V500H406V238Z" />
<glyph unicode="K" horiz-adv-x="684" d="M40 589H289V500H229V338H311L430 500H371V589H625V500H533L390 314L549 89H649V0H364V89H438L325 252H229L230 89H289V0H40V89H128V500H40V589Z" />
<glyph unicode="L" horiz-adv-x="558" d="M40 589H351V500H244L243 89H414L451 191L535 162L479 0H40V89H142L143 500H40V589Z" />
<glyph unicode="M" horiz-adv-x="860" d="M41 589H289L436 200L574 589H820V500H732V89H820V0H566V89H630V512L588 379L476 71H391L266 388L224 508L222 89H288V0H39V89H128L129 500H41V589Z" />
<glyph unicode="N" horiz-adv-x="732" d="M41 589H285L514 149V500H435V589H704V500H609V0H488L224 501L225 89H309V0H40V89H130L129 500H41V589Z" />
<glyph unicode="O" horiz-adv-x="656" d="M327 607Q412 607 476 570T577 463T613 295Q613 198 577 128T477 20T328 -18Q244 -18 180 20T79 128T43 295Q43 393 79 462T179 569T327 607ZM328 520Q242 520 196 462T150 295Q150 186 196 128T328 69Q414 69 460 127T506
295Q506 403 460 461T328 520Z" />
<glyph unicode="P" horiz-adv-x="553" d="M302 589Q414 589 473 541T533 400Q533 306 474 257T302 207H229V89H337V0H40V89H127V500H40V589H302ZM301 290Q426 290 426 398Q426 500 301 500H230V290H301Z" />
<glyph unicode="Q" horiz-adv-x="680" d="M470 16Q408 -18 328 -18Q244 -18 180 19T80 126T43 295Q43 394 79 463T179 570T327 607Q412 607 476 570T577 464T613 295Q613 222 593 165T535 67L660 -6L594 -88L470 16ZM328 521Q239 521 195 463T150 295Q150 186
194 127T328 68Q417 68 461 127T506 295Q506 404 462 462T328 521Z" />
<glyph unicode="R" horiz-adv-x="623" d="M40 0V89H127V500H40V589H304Q392 589 441 567T511 503T531 401Q531 308 481 261T318 213H230V89H286V0H40ZM231 302H302Q344 302 371 310T411 339T424 401Q424 441 410 462T369 492T302 500H231V302ZM432 0L311 222L410
237L498 89H595V0H432Z" />
<glyph unicode="S" horiz-adv-x="551" d="M278 -18Q206 -18 153 -6T62 20L43 151L127 161L139 87Q169 77 200 71T273 65Q311 65 342 75T393 106T413 161Q413 196 393 221T312 255L238 267Q150 282 103 325T56 439Q56 491 83 529T162 587T281 607Q317 607 348 604T408
592T469 571L487 433L400 424L387 510Q366 517 339 521T279 526Q218 526 183 505T148 445Q148 407 173 386T253 357L334 343Q426 330 467 286T508 174Q508 121 488 84T435 25T361 -8T278 -18Z" />
<glyph unicode="T" horiz-adv-x="595" d="M32 589H558V403H466V500H347L346 89H434V0H154V89H243V500H125V403H32V589Z" />
<glyph unicode="U" horiz-adv-x="684" d="M567 214Q567 105 511 44T340 -18Q227 -18 172 43T117 214V500H28V589H279V500H219V191Q219 126 251 97T340 67Q398 67 431 99T464 201V500H405V589H656V500H567V214Z" />
<glyph unicode="V" horiz-adv-x="665" d="M5 589H266V500H203L299 251L344 108L386 247L477 500H411V589H659V500H577L397 0H288L92 500H5V589Z" />
<glyph unicode="W" horiz-adv-x="925" d="M4 589H264V500H206L275 246L310 109L337 243L413 514H534L604 247L632 109L665 247L739 500H676V589H922V500H841L683 0H564L500 267L470 397L435 267L367 0H251L93 500H4V589Z" />
<glyph unicode="X" horiz-adv-x="686" d="M24 0V88H118L279 296L112 500H28V589H291V500H231L342 363L451 500H390V589H648V500H556L401 298L570 88H667V0H388V88H453L338 229L225 88H284V0H24Z" />
<glyph unicode="Y" horiz-adv-x="658" d="M5 589H265V500H205L335 320L472 500H403V589H653V500H583L382 245L381 88H475V0H186V88H280L281 243L86 500H5V589Z" />
<glyph unicode="Z" horiz-adv-x="555" d="M62 589H497V524L178 89H400L437 189L522 161L467 0H45V71L360 500H138L118 408L33 421L62 589Z" />
<glyph unicode="[" horiz-adv-x="246" d="M56 659H247V578H153V-50H247V-131H56V659Z" />
<glyph unicode="\" horiz-adv-x="375" d="M-26 589H72L401 -131H302L-26 589Z" />
<glyph unicode="]" horiz-adv-x="245" d="M-1 659H189V-131H-1V-50H93V578H-1V659Z" />
<glyph unicode="^" horiz-adv-x="484" d="M285 717L473 431L402 378L253 607H247L97 378L27 431L215 717H285Z" />
<glyph unicode="_" horiz-adv-x="609" d="M64 -17H545V-104H64V-17Z" />
<glyph unicode="`" horiz-adv-x="291" d="M200 500L46 675L116 728L245 531L200 500Z" />
<glyph unicode="a" horiz-adv-x="541" d="M362 24Q294 -17 220 -17Q130 -17 84 18T36 120Q35 257 213 257L331 256Q331 319 307 349T238 380Q215 380 194 377T154 368L144 316L61 329L79 429Q118 443 158 450T238 458Q333 458 382 408T432 259V90L520 61L494 -21L362
24ZM216 186Q179 186 159 170T139 122Q139 60 224 60Q284 60 331 92V186H216Z" />
<glyph unicode="b" horiz-adv-x="536" d="M266 -17Q209 -17 158 -3T66 39V546L-32 580L-4 663L165 605V427Q220 458 276 458Q386 458 440 401T494 227Q494 104 438 44T266 -17ZM265 64Q329 64 360 104T392 227Q392 303 363 339T275 376Q215 376 165 341V83Q205
64 265 64Z" />
<glyph unicode="c" horiz-adv-x="486" d="M352 369Q333 376 315 378T277 381Q213 381 178 340T142 218Q142 144 180 105T275 65Q307 65 341 76T408 111L449 50Q421 29 395 14T340 -9T269 -17Q200 -17 148 10T68 91T40 218Q40 297 69 350T151 431T276 459Q316 459
352 451T430 430L450 308L366 290L352 369Z" />
<glyph unicode="d" horiz-adv-x="579" d="M531 -21L401 24Q343 -17 270 -17Q161 -17 101 47T40 226Q40 336 100 397T270 458Q293 458 319 453T369 439V546L272 580L300 663L469 605V94L558 63L531 -21ZM271 64Q293 64 320 72T369 93V354Q350 364 323 370T271 376Q213
376 178 335T142 227Q142 153 177 109T271 64Z" />
<glyph unicode="e" horiz-adv-x="510" d="M463 53Q421 17 376 0T280 -17Q206 -17 151 12T67 94T37 220Q37 291 65 344T144 428T263 458Q329 458 377 431T451 354T478 239Q478 228 477 215T474 190L134 189Q137 145 157 118T209 77T278 63Q321 63 358 76T425 114L463
53ZM378 261Q378 313 348 345T265 378Q216 378 179 346T136 261H378Z" />
<glyph unicode="f" horiz-adv-x="376" d="M125 489Q125 576 172 622T309 669Q348 669 383 659T442 627L406 557Q364 587 314 587Q271 587 247 561T223 482V440H347V361H223V80H313V0H41V80H125V361H41V440H125V489Z" />
<glyph unicode="g" horiz-adv-x="559" d="M240 116Q143 116 88 159T32 280Q32 363 88 410T241 458Q279 458 308 452T363 431L511 484L541 397L421 375Q437 356 443 333T450 286Q450 229 423 191T348 135T240 116ZM248 -234Q201 -234 157 -226T78 -206T24 -184L60
-106Q103 -126 151 -137T248 -149Q292 -149 319 -142T360 -122T374 -92Q374 -67 354 -54T284 -40H132V156L217 134V42H301Q386 42 428 8T471 -89Q471 -138 442 -170T363 -218T248 -234ZM242 193Q294 193 324 219T354 286Q354 331 325 355T242 380Q187 380 158 356T129
286Q129 245 159 219T242 193Z" />
<glyph unicode="h" horiz-adv-x="624" d="M21 0V80H105V550L10 583L36 663L205 606V418Q269 458 345 458Q430 458 473 413T516 280V80H600V0H373V80H415V264Q415 322 393 348T321 374Q294 374 262 366T206 345V80H249V0H21Z" />
<glyph unicode="i" horiz-adv-x="330" d="M39 440H223V80H306V0H39V80H122V361H39V440ZM161 656Q191 656 209 638T228 589Q228 559 210 541T161 523Q132 523 114 541T96 589Q96 619 114 637T161 656Z" />
<glyph unicode="j" horiz-adv-x="271" d="M208 -33Q208 -66 205 -101T185 -167T130 -215T22 -234Q5 -234 -13 -232T-44 -227L-32 -148Q-21 -149 -7 -150T18 -151Q53 -151 71 -141T97 -115T106 -80T108 -43V361H24V440H208V-33ZM148 656Q178 656 196 638T215 589Q215
559 197 541T148 523Q119 523 101 541T83 589Q83 619 101 637T148 656Z" />
<glyph unicode="k" horiz-adv-x="573" d="M39 664L208 606V260H288L347 361H296V440H525V361H446L361 224L454 80H538V0H400L289 181H208V80H246V0H24V80H108V551L13 584L39 664Z" />
<glyph unicode="l" horiz-adv-x="319" d="M27 0V80H111V556L13 583L37 664L211 615V80H295V0H27Z" />
<glyph unicode="m" horiz-adv-x="908" d="M44 0V80H127V342L32 373L58 453L197 407Q227 431 264 444T339 458Q384 458 419 444T477 403Q505 427 544 442T623 458Q716 458 757 415T799 273V80H884V0H658V80H699V263Q699 323 679 348T611 373Q585 373 558 364T514
339V80H555V0H371V80H413V263Q413 323 394 348T326 373Q300 373 273 364T228 339V80H270V0H44Z" />
<glyph unicode="n" horiz-adv-x="646" d="M44 0V80H128V339L32 372L59 453L195 406Q233 431 272 444T361 458Q417 458 456 436T517 374T538 278V80H621V0H395V80H438V262Q438 316 413 344T339 372Q311 372 282 363T228 338V80H271V0H44Z" />
<glyph unicode="o" horiz-adv-x="542" d="M270 458Q342 458 393 430T473 348T501 219Q501 108 439 46T270 -17Q200 -17 149 11T70 92T42 219Q42 294 69 347T148 429T270 458ZM270 376Q207 376 175 336T142 219Q142 144 174 104T270 64Q336 64 368 104T401 219Q401
295 369 335T270 376Z" />
<glyph unicode="p" horiz-adv-x="583" d="M30 -215V-136H114V345L20 376L46 458L185 410Q217 432 254 445T323 458Q426 458 484 397T543 228Q543 155 515 99T436 13T314 -18Q261 -18 215 -4V-136H299V-215H30ZM313 63Q373 63 407 106T441 227Q441 300 410 338T319
376Q290 376 261 366T214 339V83Q231 74 258 69T313 63Z" />
<glyph unicode="q" horiz-adv-x="535" d="M277 -215V-136H370V9Q347 -3 319 -10T263 -17Q158 -17 99 48T40 229Q40 337 104 397T280 458Q330 458 380 444T470 401V-136H546V-215H277ZM268 64Q293 64 321 71T370 91V350Q351 362 326 369T269 376Q212 376 177 336T142
230Q142 155 177 110T268 64Z" />
<glyph unicode="r" horiz-adv-x="452" d="M201 405Q240 431 280 443T361 456Q398 456 420 447L437 331L354 313L344 368Q311 366 281 357T229 333L228 80H326V0H44V80H128V340L32 372L59 453L201 405Z" />
<glyph unicode="s" horiz-adv-x="460" d="M313 368Q294 375 275 379T230 384Q194 384 166 370T137 326Q137 301 156 286T222 265L275 258Q354 249 388 216T423 127Q423 81 398 48T329 -1T233 -18Q179 -18 134 -6T53 27L36 131L121 147L133 87Q155 76 179 70T228
64Q270 64 301 79T333 125Q333 149 316 162T252 181L200 188Q127 198 87 232T47 320Q47 364 71 395T137 442T230 458Q276 458 315 448T388 417L406 321L330 306L313 368Z" />
<glyph unicode="t" horiz-adv-x="387" d="M263 -17Q219 -17 184 0T129 55T109 157V361H26V440H109V530L206 558V440H328V361H206V194Q206 133 220 98T274 62Q303 62 342 81L361 8Q338 -2 313 -9T263 -17Z" />
<glyph unicode="u" horiz-adv-x="626" d="M443 26Q410 6 370 -5T295 -17Q196 -17 150 26T104 162V361H24V440H205V178Q205 121 227 95T299 69Q326 69 358 77T414 99V361H334V440H515V96L605 65L579 -20L443 26Z" />
<glyph unicode="v" horiz-adv-x="588" d="M3 440H234V361H183L260 178L296 88L333 178L410 361H359V440H584V361H513L350 0H239L81 361H4L3 440Z" />
<glyph unicode="w" horiz-adv-x="772" d="M195 0L76 361H4V440H239V361H179L225 201L256 95L284 199L339 377H439L494 197L523 93L551 194L603 361H544V440H768V361H697L572 0H469L388 265L302 0H195Z" />
<glyph unicode="x" horiz-adv-x="609" d="M30 0V80H116L241 225L107 361H30V440H269V361H226L311 270L389 361H349V440H568V361H493L369 217L505 80H586V0H345V80H388L300 171L219 80H261V0H30Z" />
<glyph unicode="y" horiz-adv-x="576" d="M151 -235Q132 -235 113 -232T71 -219L88 -142Q105 -147 118 -150T146 -153Q172 -153 189 -143T221 -106T255 -29L401 361H348L351 440H573V361H498L322 -81Q290 -160 249 -197T151 -235ZM277 -68L76 361H3V440H234V361H178L321
28L277 -68Z" />
<glyph unicode="z" horiz-adv-x="480" d="M47 0V68L303 361H131L119 304L32 321L55 440H422V375L163 80H348L360 141L448 125L423 0H47Z" />
<glyph unicode="{" horiz-adv-x="252" d="M50 292Q63 292 68 304T75 334T77 371V473Q77 524 93 563T145 625T243 652L254 569Q217 565 198 551T172 513T165 457V342Q165 306 149 286T108 255Q132 245 148 225T165 168V59Q165 27 172 4T198 -34T254 -54L243 -136Q182
-132 146 -109T93 -47T77 43V139Q77 162 75 180T68 208T50 218H-11V292H50Z" />
<glyph unicode="|" horiz-adv-x="307" d="M107 653H200V-216H107V653Z" />
<glyph unicode="}" horiz-adv-x="253" d="M203 218Q191 218 185 208T178 180T176 139V43Q176 -8 160 -47T108 -109T9 -136L-2 -54Q36 -49 55 -35T81 3T88 59V168Q88 204 104 224T145 255Q121 266 105 286T88 342V457Q88 489 81 512T55 550T-2 569L9 652Q71 648
107 625T160 563T176 473V371Q176 353 177 335T184 304T203 292H264V218H203Z" />
<glyph unicode="~" horiz-adv-x="484" d="M95 238L44 297Q74 323 103 341T171 360Q200 360 226 349T277 326T322 314Q337 314 354 321T394 351L440 295Q414 272 395 258T357 238T314 231Q294 231 271 242T223 264T176 275Q155 275 137 266T95 238Z" />
<glyph unicode="&#xa0;" horiz-adv-x="243" />
<glyph unicode="&#xa1;" horiz-adv-x="227" d="M75 236H151L170 -197H59L75 236ZM113 447Q143 447 164 425T186 373Q186 344 165 322T113 300Q83 300 62 322T40 373Q40 403 61 425T113 447Z" />
<glyph unicode="&#xa2;" horiz-adv-x="453" d="M326 437Q322 439 311 443T285 447V139Q311 144 341 156T391 183L433 122Q393 94 355 78T285 57V-29H207V58Q121 72 73 133T24 290Q24 387 72 449T207 525V616H285V528Q319 526 351 519T400 503L424 382L340 364L326
437ZM207 443Q122 417 122 290Q122 166 207 142V443Z" />
<glyph unicode="&#xa3;" horiz-adv-x="551" d="M218 303Q229 251 228 216T210 150T153 82L155 79Q177 92 198 97T241 102Q271 102 295 94T343 77T393 68Q417 68 439 77T484 104L529 34Q497 9 461 -4T389 -18Q354 -18 330 -12T285 2T244 17T196 24Q165 24 136 14T71
-19L25 45Q73 78 99 113T134 191T130 289Q108 396 122 467T186 573T319 608Q352 608 378 604T430 589T488 562L511 425L436 412L416 512Q394 526 371 531T317 536Q271 537 243 512T209 436T218 303ZM378 327V259H44V327H378Z" />
<glyph unicode="&#xa4;" horiz-adv-x="511" d="M87 91L41 159L106 202Q78 245 79 296T107 389L41 433L87 502L170 445Q208 465 254 465T339 446L421 502L467 434L403 391Q424 362 430 329T431 262T405 201L468 160L421 92L341 145Q302 125 254 125T169 145L87
91ZM255 197Q297 197 325 225T353 294Q353 335 325 364T255 394Q215 394 187 365T158 294Q158 254 186 226T255 197Z" />
<glyph unicode="&#xa5;" horiz-adv-x="666" d="M190 0V88H284V135H131V196H284V234H131V296H258L90 500H9V589H269V500H213L340 331L461 500H407V589H657V500H567L410 296H538V234H386V196H538V135H386L385 88H479V0H190Z" />
<glyph unicode="&#xa6;" horiz-adv-x="307" d="M107 664H200V295H107V664ZM107 149H200V-216H107V149Z" />
<glyph unicode="&#xa7;" horiz-adv-x="521" d="M273 208Q358 180 397 141T436 46Q436 4 411 -27T343 -77T249 -95Q201 -95 158 -82T81 -42L65 51L144 67L156 10Q173 -4 195 -10T247 -17Q292 -17 317 0T343 49Q343 77 311 98T215 140Q152 160 117 196T81 279Q81
319 105 348T169 390L218 363Q191 354 179 337T166 296Q166 269 192 248T273 208ZM286 155Q351 191 351 243Q351 276 326 301T241 345Q171 366 134 402T96 487Q96 529 119 559T182 605T271 621Q315 621 356 608T430 571L444 474L364 460L352 528Q315 548 273 548Q232
548 208 535T184 493Q184 470 210 450T293 412Q363 388 402 349T441 256Q441 181 352 128L286 155Z" />
<glyph unicode="&#xa8;" horiz-adv-x="415" d="M300 637Q326 637 344 618T363 573Q363 547 345 528T300 509Q273 509 255 528T236 573Q236 599 254 618T300 637ZM114 637Q140 637 159 618T178 573Q178 547 159 528T114 509Q88 509 69 528T50 573Q50 599 69 618T114 637Z" />
<glyph unicode="&#xa9;" horiz-adv-x="857" d="M430 663Q510 663 577 636T694 559T770 442T797 293Q797 214 770 147T694 31T578 -46T430 -74Q350 -74 282 -47T165 30T88 147T60 293Q60 374 87 441T164 559T282 636T430 663ZM505 417Q498 419 484 424T444 429Q383
429 354 393T325 297Q325 237 355 200T444 162Q463 162 481 166T506 174L522 230L591 209L566 120Q566 120 551 113T507 99T440 92Q351 92 296 143T240 296Q240 394 294 446T440 498Q481 498 509 489T553 471T568 461L589 377L524 357L505 417ZM426 586Q341 586
276 546T176 439T140 288Q140 208 175 144T276 41T426 3Q512 3 577 41T680 143T718 288Q718 372 681 439T578 546T426 586Z" />
<glyph unicode="&#xaa;" horiz-adv-x="379" d="M331 152L257 179Q233 166 211 159T163 152Q107 152 76 177T44 244Q43 290 74 310T159 331H230Q230 369 218 385T173 401Q159 401 147 399T126 395L118 361L58 373L70 437Q83 442 111 450T172 458Q212 458 238 449T277
422T296 382T301 332V227L350 211L331 152ZM166 209Q188 209 204 217T230 232V278H161Q142 278 130 271T117 245Q117 229 131 219T166 209Z" />
<glyph unicode="&#xab;" horiz-adv-x="335" d="M150 441L215 395L92 217L215 40L150 -6L-7 217L150 441ZM263 365L326 321L259 217L326 114L263 69L170 217L263 365Z" />
<glyph unicode="&#xac;" horiz-adv-x="484" d="M50 348H434V119H333V263H50V348Z" />
<glyph unicode="&#xad;" horiz-adv-x="374" d="M46 321H328V228H46V321Z" />
<glyph unicode="&#xae;" horiz-adv-x="667" d="M333 65Q256 65 196 100T100 195T65 333Q65 410 100 471T195 567T333 603Q411 603 471 568T567 472T602 333Q602 256 567 196T472 100T333 65ZM332 127Q392 127 437 154T508 227T534 329Q534 389 509 436T438 511T332
539Q273 539 228 512T158 437T133 329Q133 273 158 227T228 154T332 127ZM218 200V250H256V422H218V470H339Q397 470 421 449T445 382Q445 353 433 335T396 306L428 250H473V200H394L345 297H311V250H337V200H218ZM312 343H340Q360 343 374 350T388 380Q388 407
375 414T338 422H312V343Z" />
<glyph unicode="&#xaf;" horiz-adv-x="439" d="M60 607H381V538H60V607Z" />
<glyph unicode="&#xb0;" horiz-adv-x="386" d="M193 612Q236 612 269 584T302 501Q302 448 269 420T193 391Q150 391 117 419T83 501Q83 555 116 583T193 612ZM193 560Q172 560 157 545T141 501Q141 473 156 458T193 443Q213 443 228 458T244 501Q244 530 229
545T193 560Z" />
<glyph unicode="&#xb1;" horiz-adv-x="484" d="M195 494H289V369H434V284H289V179H195V284H50V369H195V494ZM434 141V56H50V141H434Z" />
<glyph unicode="&#xb2;" horiz-adv-x="398" d="M52 218L25 297Q65 321 102 343T168 386Q206 413 224 438T243 485Q243 509 226 520T182 531Q157 531 127 520T71 486L20 543Q57 574 95 591T177 608Q222 608 257 594T312 555T333 493Q333 452 307 419T241 358Q215
338 183 321T118 287H274L313 341L375 302L318 218H52Z" />
<glyph unicode="&#xb3;" horiz-adv-x="382" d="M178 438Q209 438 227 452T245 487Q245 507 226 519T172 531Q146 531 118 523T70 499L24 553Q54 579 92 591T172 604Q246 604 287 574T329 497Q329 465 309 443T255 411Q296 402 320 380T344 323Q344 290 324 263T267
219T183 203Q130 203 90 217T17 256L60 322Q87 302 115 290T179 277Q216 277 236 291T257 327Q257 348 238 362T182 376H132V438H178Z" />
<glyph unicode="&#xb4;" horiz-adv-x="291" d="M175 728L246 675L91 500L47 531L175 728Z" />
<glyph unicode="&#xb5;" horiz-adv-x="637" d="M254 -225Q172 -225 136 -175T99 -17L98 440H199V201Q199 126 224 96T299 65Q326 65 357 75T408 105V440H508V97L599 66L572 -16L437 31Q403 8 364 -4T290 -16Q225 -16 186 25V-25Q186 -90 208 -116T270 -143Q298
-143 328 -132L345 -210Q322 -217 298 -221T254 -225Z" />
<glyph unicode="&#xb6;" horiz-adv-x="625" d="M226 285Q135 285 94 323T52 437Q52 513 96 551T214 589H585V503H494V85H581V0H408V503H338V0H157V85H254V285H226Z" />
<glyph unicode="&#xb7;" horiz-adv-x="239" d="M120 293Q150 293 171 272T193 220Q193 190 172 169T120 147Q90 147 69 168T47 220Q47 250 68 271T120 293Z" />
<glyph unicode="&#xb8;" horiz-adv-x="311" d="M151 -230Q121 -230 97 -222T57 -203T33 -188L61 -144Q80 -156 102 -164T150 -172Q174 -172 185 -163T197 -136Q197 -120 185 -111T139 -102H89V0H152V-56Q212 -55 241 -75T271 -138Q271 -168 256 -188T213 -219T151 -230Z" />
<glyph unicode="&#xb9;" horiz-adv-x="366" d="M188 589H240V287H354V218H42V287H156L157 480L61 415L23 468L188 589Z" />
<glyph unicode="&#xba;" horiz-adv-x="381" d="M190 458Q256 458 296 419T336 306Q336 238 297 197T190 156Q127 156 86 195T45 306Q45 379 86 418T190 458ZM191 393Q157 393 140 370T122 306Q122 267 139 244T191 220Q225 220 242 243T260 306Q260 347 243 370T191 393Z" />
<glyph unicode="&#xbb;" horiz-adv-x="335" d="M71 365L165 217L71 69L9 114L76 217L9 321L71 365ZM184 441L341 217L184 -6L120 40L243 217L120 395L184 441Z" />
<glyph unicode="&#xbc;" horiz-adv-x="956" d="M188 589H240V287H354V218H42V287H156L157 480L61 415L23 468L188 589ZM654 652H736L296 -76H213L654 652ZM685 0V69H771V107H548V182L722 408L782 356L635 176H771V294H856V176H921V107H856V69H919V0H685Z" />
<glyph unicode="&#xbd;" horiz-adv-x="966" d="M188 589H240V287H354V218H42V287H156L157 480L61 415L23 468L188 589ZM654 652H736L296 -76H213L654 652ZM621 0L594 79Q634 103 671 125T737 168Q775 195 793 220T812 267Q812 291 795 302T751 313Q726 313 696
302T640 268L589 325Q626 356 664 373T746 390Q791 390 826 376T881 337T902 275Q902 234 876 201T810 140Q784 120 752 103T687 69H843L882 123L944 84L887 0H621Z" />
<glyph unicode="&#xbe;" horiz-adv-x="935" d="M178 438Q209 438 227 452T245 487Q245 507 226 519T172 531Q146 531 118 523T70 499L24 553Q54 579 92 591T172 604Q246 604 287 574T329 497Q329 465 309 443T255 411Q296 402 320 380T344 323Q344 290 324 263T267
219T183 203Q130 203 90 217T17 256L60 322Q87 302 115 290T179 277Q216 277 236 291T257 327Q257 348 238 362T182 376H132V438H178ZM634 652H716L276 -76H193L634 652ZM665 0V69H751V107H528V182L702 408L762 356L615 176H751V294H836V176H901V107H836V69H899V0H665Z"
/>
<glyph unicode="&#xbf;" horiz-adv-x="382" d="M362 -188Q338 -206 291 -218T193 -230Q104 -230 55 -192T5 -86Q5 -41 30 -12T107 45Q143 63 160 75T184 96T191 118Q191 129 184 139T160 163L215 208Q255 182 266 158T278 108Q278 83 269 65T237 30T174 -10Q144
-26 129 -37T108 -61T102 -89Q102 -117 127 -134T195 -152Q220 -152 242 -147T283 -135L295 -52L377 -61L362 -188ZM196 249Q167 249 145 271T123 322Q123 352 145 373T196 395Q226 395 247 374T269 322Q269 293 248 271T196 249Z" />
<glyph unicode="&#xc0;" horiz-adv-x="669" d="M8 0V89H105L262 500H171V589H386L569 89H661V0H408V89H465L434 177H228L196 89H256V0H8ZM255 252H408L334 480L255 252ZM150 781L393 694L380 653L127 695L150 781Z" />
<glyph unicode="&#xc1;" horiz-adv-x="669" d="M8 0V89H105L262 500H171V589H386L569 89H661V0H408V89H465L434 177H228L196 89H256V0H8ZM255 252H408L334 480L255 252ZM480 783L503 696L251 654L237 696L480 783Z" />
<glyph unicode="&#xc2;" horiz-adv-x="669" d="M8 0V89H105L262 500H171V589H386L569 89H661V0H408V89H465L434 177H228L196 89H256V0H8ZM255 252H408L334 480L255 252ZM326 789L502 687L476 649L326 706L173 649L149 687L326 789Z" />
<glyph unicode="&#xc3;" horiz-adv-x="669" d="M8 0V89H105L262 500H171V589H386L569 89H661V0H408V89H465L434 177H228L196 89H256V0H8ZM255 252H408L334 480L255 252ZM194 667L168 725Q201 749 225 760T284 771Q313 771 334 761T373 741T412 731Q431 731 445
738T485 762L511 701Q483 675 460 665T406 654Q384 653 364 663T325 684T282 695Q258 695 241 688T194 667Z" />
<glyph unicode="&#xc4;" horiz-adv-x="669" d="M8 0V89H105L262 500H171V589H386L569 89H661V0H408V89H465L434 177H228L196 89H256V0H8ZM255 252H408L334 480L255 252ZM418 792Q444 792 462 773T481 728Q481 702 463 683T418 664Q391 664 373 683T354 728Q354
754 372 773T418 792ZM232 792Q258 792 277 773T296 728Q296 702 277 683T232 664Q206 664 187 683T168 728Q168 754 187 773T232 792Z" />
<glyph unicode="&#xc5;" horiz-adv-x="669" d="M8 0V89H105L262 500H171V589H386L569 89H661V0H408V89H465L434 177H228L196 89H256V0H8ZM255 252H408L334 480L255 252ZM344 759Q388 759 414 733T441 662Q441 618 415 592T344 565Q300 565 274 591T247 662Q247
706 273 732T344 759ZM344 707Q324 707 311 695T298 662Q298 642 311 630T344 617Q364 617 376 629T389 662Q389 682 377 694T344 707Z" />
<glyph unicode="&#xc6;" horiz-adv-x="931" d="M28 0V89H125L381 500H284V589H821L877 421L793 392L754 500H577V340H738V252H576V89H777L815 192L899 163L844 0H385V89H474V168H273L225 89H280V0H28ZM325 256H474L475 500L325 256Z" />
<glyph unicode="&#xc7;" horiz-adv-x="595" d="M445 501Q440 504 424 508T386 517T338 521Q247 521 199 462T150 295Q150 187 200 128T338 68Q363 68 385 73T423 83T445 91L466 175L552 155L524 23Q524 23 501 13T436 -7T338 -18Q250 -18 184 18T81 124T43 295Q43
392 79 462T181 570T337 607Q401 607 443 595T506 571T527 557L553 426L466 407L445 501ZM368 -230Q338 -230 314 -222T274 -203T250 -188L278 -144Q297 -156 319 -164T367 -172Q391 -172 402 -163T414 -136Q414 -120 402 -111T356 -102H306V0H369V-56Q429 -55
458 -75T488 -138Q488 -168 473 -188T430 -219T368 -230Z" />
<glyph unicode="&#xc8;" horiz-adv-x="601" d="M41 589H491L547 421L463 392L424 500H232V346H408V258H232V89H448L485 192L569 163L513 0H40V89H129L130 500H41V589ZM120 781L363 694L350 653L97 695L120 781Z" />
<glyph unicode="&#xc9;" horiz-adv-x="601" d="M41 589H491L547 421L463 392L424 500H232V346H408V258H232V89H448L485 192L569 163L513 0H40V89H129L130 500H41V589ZM451 783L474 696L222 654L208 696L451 783Z" />
<glyph unicode="&#xca;" horiz-adv-x="601" d="M41 589H491L547 421L463 392L424 500H232V346H408V258H232V89H448L485 192L569 163L513 0H40V89H129L130 500H41V589ZM297 789L473 687L447 649L297 706L144 649L120 687L297 789Z" />
<glyph unicode="&#xcb;" horiz-adv-x="601" d="M41 589H491L547 421L463 392L424 500H232V346H408V258H232V89H448L485 192L569 163L513 0H40V89H129L130 500H41V589ZM389 792Q415 792 433 773T452 728Q452 702 434 683T389 664Q362 664 344 683T325 728Q325 754
343 773T389 792ZM203 792Q229 792 248 773T267 728Q267 702 248 683T203 664Q177 664 158 683T139 728Q139 754 158 773T203 792Z" />
<glyph unicode="&#xcc;" horiz-adv-x="372" d="M41 589H333V500H239L238 89H333V0H40V89H136V500H41V589ZM267 781L510 694L497 653L244 695L267 781Z" />
<glyph unicode="&#xcd;" horiz-adv-x="372" d="M41 589H333V500H239L238 89H333V0H40V89H136V500H41V589ZM341 783L364 696L112 654L98 696L341 783Z" />
<glyph unicode="&#xce;" horiz-adv-x="372" d="M41 589H333V500H239L238 89H333V0H40V89H136V500H41V589ZM443 789L619 687L593 649L443 706L290 649L266 687L443 789Z" />
<glyph unicode="&#xcf;" horiz-adv-x="372" d="M41 589H333V500H239L238 89H333V0H40V89H136V500H41V589ZM279 792Q305 792 323 773T342 728Q342 702 324 683T279 664Q252 664 234 683T215 728Q215 754 233 773T279 792ZM93 792Q119 792 138 773T157 728Q157 702
138 683T93 664Q67 664 48 683T29 728Q29 754 48 773T93 792Z" />
<glyph unicode="&#xd0;" horiz-adv-x="677" d="M324 589Q418 589 487 561T595 465T634 284Q634 187 595 124T487 31T332 0H54V89H142V261H54V347H142V500H54V589H324ZM314 89Q385 89 432 108T503 170T527 284Q527 370 504 417T436 482T324 500H245V347H347V261H245V89H314Z"
/>
<glyph unicode="&#xd1;" horiz-adv-x="732" d="M41 589H285L514 149V500H435V589H704V500H609V0H488L224 501L225 89H309V0H40V89H130L129 500H41V589ZM237 667L211 725Q244 749 268 760T327 771Q356 771 377 761T416 741T455 731Q474 731 488 738T528 762L554
701Q526 675 503 665T449 654Q427 653 407 663T368 684T325 695Q301 695 284 688T237 667Z" />
<glyph unicode="&#xd2;" horiz-adv-x="656" d="M327 607Q412 607 476 570T577 463T613 295Q613 198 577 128T477 20T328 -18Q244 -18 180 20T79 128T43 295Q43 393 79 462T179 569T327 607ZM328 520Q242 520 196 462T150 295Q150 186 196 128T328 69Q414 69 460
127T506 295Q506 403 460 461T328 520ZM152 781L395 694L382 653L129 695L152 781Z" />
<glyph unicode="&#xd3;" horiz-adv-x="656" d="M327 607Q412 607 476 570T577 463T613 295Q613 198 577 128T477 20T328 -18Q244 -18 180 20T79 128T43 295Q43 393 79 462T179 569T327 607ZM328 520Q242 520 196 462T150 295Q150 186 196 128T328 69Q414 69 460
127T506 295Q506 403 460 461T328 520ZM482 783L505 696L253 654L239 696L482 783Z" />
<glyph unicode="&#xd4;" horiz-adv-x="656" d="M327 607Q412 607 476 570T577 463T613 295Q613 198 577 128T477 20T328 -18Q244 -18 180 20T79 128T43 295Q43 393 79 462T179 569T327 607ZM328 520Q242 520 196 462T150 295Q150 186 196 128T328 69Q414 69 460
127T506 295Q506 403 460 461T328 520ZM328 789L504 687L478 649L328 706L175 649L151 687L328 789Z" />
<glyph unicode="&#xd5;" horiz-adv-x="656" d="M327 607Q412 607 476 570T577 463T613 295Q613 198 577 128T477 20T328 -18Q244 -18 180 20T79 128T43 295Q43 393 79 462T179 569T327 607ZM328 520Q242 520 196 462T150 295Q150 186 196 128T328 69Q414 69 460
127T506 295Q506 403 460 461T328 520ZM196 667L170 725Q203 749 227 760T286 771Q315 771 336 761T375 741T414 731Q433 731 447 738T487 762L513 701Q485 675 462 665T408 654Q386 653 366 663T327 684T284 695Q260 695 243 688T196 667Z" />
<glyph unicode="&#xd6;" horiz-adv-x="656" d="M327 607Q412 607 476 570T577 463T613 295Q613 198 577 128T477 20T328 -18Q244 -18 180 20T79 128T43 295Q43 393 79 462T179 569T327 607ZM328 520Q242 520 196 462T150 295Q150 186 196 128T328 69Q414 69 460
127T506 295Q506 403 460 461T328 520ZM420 792Q446 792 464 773T483 728Q483 702 465 683T420 664Q393 664 375 683T356 728Q356 754 374 773T420 792ZM234 792Q260 792 279 773T298 728Q298 702 279 683T234 664Q208 664 189 683T170 728Q170 754 189 773T234
792Z" />
<glyph unicode="&#xd7;" horiz-adv-x="484" d="M141 470L243 368L347 471L408 412L303 307L406 205L342 141L240 244L136 140L76 200L180 304L77 407L141 470Z" />
<glyph unicode="&#xd8;" horiz-adv-x="656" d="M128 -69L178 40L208 90L405 521L430 570L467 651H555L499 530L469 478L273 47L252 10L216 -69H128ZM327 607Q412 607 476 570T577 463T613 295Q613 198 577 128T477 20T328 -18Q244 -18 180 20T79 128T43 295Q43
393 79 462T179 569T327 607ZM328 520Q242 520 196 462T150 295Q150 186 196 128T328 69Q414 69 460 127T506 295Q506 403 460 461T328 520Z" />
<glyph unicode="&#xd9;" horiz-adv-x="684" d="M567 214Q567 105 511 44T340 -18Q227 -18 172 43T117 214V500H28V589H279V500H219V191Q219 126 251 97T340 67Q398 67 431 99T464 201V500H405V589H656V500H567V214ZM166 781L409 694L396 653L143 695L166 781Z" />
<glyph unicode="&#xda;" horiz-adv-x="684" d="M567 214Q567 105 511 44T340 -18Q227 -18 172 43T117 214V500H28V589H279V500H219V191Q219 126 251 97T340 67Q398 67 431 99T464 201V500H405V589H656V500H567V214ZM496 783L519 696L267 654L253 696L496 783Z" />
<glyph unicode="&#xdb;" horiz-adv-x="684" d="M567 214Q567 105 511 44T340 -18Q227 -18 172 43T117 214V500H28V589H279V500H219V191Q219 126 251 97T340 67Q398 67 431 99T464 201V500H405V589H656V500H567V214ZM342 789L518 687L492 649L342 706L189 649L165
687L342 789Z" />
<glyph unicode="&#xdc;" horiz-adv-x="684" d="M567 214Q567 105 511 44T340 -18Q227 -18 172 43T117 214V500H28V589H279V500H219V191Q219 126 251 97T340 67Q398 67 431 99T464 201V500H405V589H656V500H567V214ZM434 792Q460 792 478 773T497 728Q497 702 479
683T434 664Q407 664 389 683T370 728Q370 754 388 773T434 792ZM248 792Q274 792 293 773T312 728Q312 702 293 683T248 664Q222 664 203 683T184 728Q184 754 203 773T248 792Z" />
<glyph unicode="&#xdd;" horiz-adv-x="658" d="M5 589H265V500H205L335 320L472 500H403V589H653V500H583L382 245L381 88H475V0H186V88H280L281 243L86 500H5V589ZM483 783L506 696L254 654L240 696L483 783Z" />
<glyph unicode="&#xde;" horiz-adv-x="552" d="M40 0V89H127V508H40V589H315V508H230V459H317Q389 459 436 443T508 395T532 311Q532 258 508 223T437 170T323 152H229V89H344V0H40ZM230 237H313Q365 237 395 251T425 306Q425 349 395 362T312 376H230V237Z" />
<glyph unicode="&#xdf;" horiz-adv-x="599" d="M416 -16Q378 -16 341 -3T285 31L269 119L348 135L357 80Q366 72 382 67T416 61Q444 61 460 76T477 116Q477 141 459 160T401 195Q362 211 336 230T298 272T285 324Q285 358 297 380T327 419T362 449T391 478T403
514Q403 541 380 558T319 576Q267 576 246 550T225 457V0H40V85H124V356H40V440H124V481Q124 570 172 611T314 653Q397 653 446 616T495 514Q495 482 483 460T454 422T420 392T391 365T379 333Q379 312 395 298T455 266Q569 219 569 120Q569 61 527 23T416 -16Z"
/>
<glyph unicode="&#xe0;" horiz-adv-x="541" d="M362 24Q294 -17 220 -17Q130 -17 84 18T36 120Q35 257 213 257L331 256Q331 319 307 349T238 380Q215 380 194 377T154 368L144 316L61 329L79 429Q118 443 158 450T238 458Q333 458 382 408T432 259V90L520 61L494
-21L362 24ZM216 186Q179 186 159 170T139 122Q139 60 224 60Q284 60 331 92V186H216ZM239 500L85 675L155 728L284 531L239 500Z" />
<glyph unicode="&#xe1;" horiz-adv-x="541" d="M362 24Q294 -17 220 -17Q130 -17 84 18T36 120Q35 257 213 257L331 256Q331 319 307 349T238 380Q215 380 194 377T154 368L144 316L61 329L79 429Q118 443 158 450T238 458Q333 458 382 408T432 259V90L520 61L494
-21L362 24ZM216 186Q179 186 159 170T139 122Q139 60 224 60Q284 60 331 92V186H216ZM322 728L393 675L238 500L194 531L322 728Z" />
<glyph unicode="&#xe2;" horiz-adv-x="541" d="M362 24Q294 -17 220 -17Q130 -17 84 18T36 120Q35 257 213 257L331 256Q331 319 307 349T238 380Q215 380 194 377T154 368L144 316L61 329L79 429Q118 443 158 450T238 458Q333 458 382 408T432 259V90L520 61L494
-21L362 24ZM216 186Q179 186 159 170T139 122Q139 60 224 60Q284 60 331 92V186H216ZM243 658L402 549L371 501L244 573L112 502L81 549L243 658Z" />
<glyph unicode="&#xe3;" horiz-adv-x="541" d="M362 24Q294 -17 220 -17Q130 -17 84 18T36 120Q35 257 213 257L331 256Q331 319 307 349T238 380Q215 380 194 377T154 368L144 316L61 329L79 429Q118 443 158 450T238 458Q333 458 382 408T432 259V90L520 61L494
-21L362 24ZM216 186Q179 186 159 170T139 122Q139 60 224 60Q284 60 331 92V186H216ZM110 518L84 576Q117 600 141 611T200 622Q229 622 250 612T289 592T328 582Q347 582 361 589T401 613L427 552Q399 526 376 516T322 505Q300 504 280 514T241 535T198 546Q174
546 157 539T110 518Z" />
<glyph unicode="&#xe4;" horiz-adv-x="541" d="M362 24Q294 -17 220 -17Q130 -17 84 18T36 120Q35 257 213 257L331 256Q331 319 307 349T238 380Q215 380 194 377T154 368L144 316L61 329L79 429Q118 443 158 450T238 458Q333 458 382 408T432 259V90L520 61L494
-21L362 24ZM216 186Q179 186 159 170T139 122Q139 60 224 60Q284 60 331 92V186H216ZM334 643Q360 643 378 624T397 579Q397 553 379 534T334 515Q307 515 289 534T270 579Q270 605 288 624T334 643ZM148 643Q174 643 193 624T212 579Q212 553 193 534T148 515Q122
515 103 534T84 579Q84 605 103 624T148 643Z" />
<glyph unicode="&#xe5;" horiz-adv-x="541" d="M362 24Q294 -17 220 -17Q130 -17 84 18T36 120Q35 257 213 257L331 256Q331 319 307 349T238 380Q215 380 194 377T154 368L144 316L61 329L79 429Q118 443 158 450T238 458Q333 458 382 408T432 259V90L520 61L494
-21L362 24ZM216 186Q179 186 159 170T139 122Q139 60 224 60Q284 60 331 92V186H216ZM242 704Q286 704 312 678T339 607Q339 563 313 537T242 510Q198 510 172 536T145 607Q145 651 171 677T242 704ZM242 652Q222 652 209 640T196 607Q196 587 209 575T242 562Q262
562 274 574T287 607Q287 627 275 639T242 652Z" />
<glyph unicode="&#xe6;" horiz-adv-x="792" d="M78 422Q115 436 149 444T231 453Q299 453 339 428T394 361Q424 404 468 428T565 453Q609 453 645 436T707 385T742 302T744 191L429 190Q434 129 468 96T559 62Q602 62 633 72T683 94T708 110L752 52Q752 52 740
41T703 17T642 -7T558 -18Q509 -18 468 -4T395 41Q377 28 347 15T283 -8T220 -18Q134 -18 86 20T36 120Q36 171 60 202T124 247T213 261L336 260Q336 294 329 317T301 354T235 367Q212 367 192 364T154 357L145 306L61 321L78 422ZM216 185Q197 185 179 180T150
162T139 122Q139 91 164 77T224 63Q246 63 271 69T319 84T355 102Q348 121 343 141T335 184L216 185ZM662 266Q661 315 637 343T559 371Q508 371 474 344T430 266H662Z" />
<glyph unicode="&#xe7;" horiz-adv-x="486" d="M352 369Q333 376 315 378T277 381Q213 381 178 340T142 218Q142 144 180 105T275 65Q307 65 341 76T408 111L449 50Q421 29 395 14T340 -9T269 -17Q200 -17 148 10T68 91T40 218Q40 297 69 350T151 431T276 459Q316
459 352 451T430 430L450 308L366 290L352 369ZM310 -230Q280 -230 256 -222T216 -203T192 -188L220 -144Q239 -156 261 -164T309 -172Q333 -172 344 -163T356 -136Q356 -120 344 -111T298 -102H248V0H311V-56Q371 -55 400 -75T430 -138Q430 -168 415 -188T372
-219T310 -230Z" />
<glyph unicode="&#xe8;" horiz-adv-x="510" d="M463 53Q421 17 376 0T280 -17Q206 -17 151 12T67 94T37 220Q37 291 65 344T144 428T263 458Q329 458 377 431T451 354T478 239Q478 228 477 215T474 190L134 189Q137 145 157 118T209 77T278 63Q321 63 358 76T425
114L463 53ZM378 261Q378 313 348 345T265 378Q216 378 179 346T136 261H378ZM257 500L103 675L173 728L302 531L257 500Z" />
<glyph unicode="&#xe9;" horiz-adv-x="510" d="M463 53Q421 17 376 0T280 -17Q206 -17 151 12T67 94T37 220Q37 291 65 344T144 428T263 458Q329 458 377 431T451 354T478 239Q478 228 477 215T474 190L134 189Q137 145 157 118T209 77T278 63Q321 63 358 76T425
114L463 53ZM378 261Q378 313 348 345T265 378Q216 378 179 346T136 261H378ZM340 728L411 675L256 500L212 531L340 728Z" />
<glyph unicode="&#xea;" horiz-adv-x="510" d="M463 53Q421 17 376 0T280 -17Q206 -17 151 12T67 94T37 220Q37 291 65 344T144 428T263 458Q329 458 377 431T451 354T478 239Q478 228 477 215T474 190L134 189Q137 145 157 118T209 77T278 63Q321 63 358 76T425
114L463 53ZM378 261Q378 313 348 345T265 378Q216 378 179 346T136 261H378ZM261 658L420 549L389 501L262 573L130 502L99 549L261 658Z" />
<glyph unicode="&#xeb;" horiz-adv-x="510" d="M463 53Q421 17 376 0T280 -17Q206 -17 151 12T67 94T37 220Q37 291 65 344T144 428T263 458Q329 458 377 431T451 354T478 239Q478 228 477 215T474 190L134 189Q137 145 157 118T209 77T278 63Q321 63 358 76T425
114L463 53ZM378 261Q378 313 348 345T265 378Q216 378 179 346T136 261H378ZM352 643Q378 643 396 624T415 579Q415 553 397 534T352 515Q325 515 307 534T288 579Q288 605 306 624T352 643ZM166 643Q192 643 211 624T230 579Q230 553 211 534T166 515Q140 515
121 534T102 579Q102 605 121 624T166 643Z" />
<glyph unicode="&#xec;" horiz-adv-x="330" d="M39 440H223V80H306V0H39V80H122V361H39V440ZM416 500L262 675L332 728L461 531L416 500Z" />
<glyph unicode="&#xed;" horiz-adv-x="330" d="M39 440H223V80H306V0H39V80H122V361H39V440ZM243 728L314 675L159 500L115 531L243 728Z" />
<glyph unicode="&#xee;" horiz-adv-x="330" d="M39 440H223V80H306V0H39V80H122V361H39V440ZM420 658L579 549L548 501L421 573L289 502L258 549L420 658Z" />
<glyph unicode="&#xef;" horiz-adv-x="330" d="M39 440H223V80H306V0H39V80H122V361H39V440ZM511 643Q537 643 555 624T574 579Q574 553 556 534T511 515Q484 515 466 534T447 579Q447 605 465 624T511 643ZM325 643Q351 643 370 624T389 579Q389 553 370 534T325
515Q299 515 280 534T261 579Q261 605 280 624T325 643Z" />
<glyph unicode="&#xf0;" horiz-adv-x="542" d="M309 583Q366 553 407 503T473 391T498 262Q498 163 467 101T384 10T267 -19Q207 -19 155 5T70 82T38 217Q38 269 55 309T104 378T174 421T257 436Q287 436 315 431T363 415Q342 451 315 478T256 525L212 476L159
525L191 560Q171 570 148 579T100 597L118 661Q157 650 187 640T243 618L290 669L342 620L309 583ZM271 362Q207 362 174 323T140 213Q140 139 172 101T268 63Q311 63 340 86T383 152T398 247Q398 271 395 291T386 333Q366 346 335 354T271 362Z" />
<glyph unicode="&#xf1;" horiz-adv-x="646" d="M44 0V80H128V339L32 372L59 453L195 406Q233 431 272 444T361 458Q417 458 456 436T517 374T538 278V80H621V0H395V80H438V262Q438 316 413 344T339 372Q311 372 282 363T228 338V80H271V0H44ZM191 518L165 576Q198
600 222 611T281 622Q310 622 331 612T370 592T409 582Q428 582 442 589T482 613L508 552Q480 526 457 516T403 505Q381 504 361 514T322 535T279 546Q255 546 238 539T191 518Z" />
<glyph unicode="&#xf2;" horiz-adv-x="542" d="M270 458Q342 458 393 430T473 348T501 219Q501 108 439 46T270 -17Q200 -17 149 11T70 92T42 219Q42 294 69 347T148 429T270 458ZM270 376Q207 376 175 336T142 219Q142 144 174 104T270 64Q336 64 368 104T401
219Q401 295 369 335T270 376ZM268 500L114 675L184 728L313 531L268 500Z" />
<glyph unicode="&#xf3;" horiz-adv-x="542" d="M270 458Q342 458 393 430T473 348T501 219Q501 108 439 46T270 -17Q200 -17 149 11T70 92T42 219Q42 294 69 347T148 429T270 458ZM270 376Q207 376 175 336T142 219Q142 144 174 104T270 64Q336 64 368 104T401
219Q401 295 369 335T270 376ZM352 728L423 675L268 500L224 531L352 728Z" />
<glyph unicode="&#xf4;" horiz-adv-x="542" d="M270 458Q342 458 393 430T473 348T501 219Q501 108 439 46T270 -17Q200 -17 149 11T70 92T42 219Q42 294 69 347T148 429T270 458ZM270 376Q207 376 175 336T142 219Q142 144 174 104T270 64Q336 64 368 104T401
219Q401 295 369 335T270 376ZM273 658L432 549L401 501L274 573L142 502L111 549L273 658Z" />
<glyph unicode="&#xf5;" horiz-adv-x="542" d="M270 458Q342 458 393 430T473 348T501 219Q501 108 439 46T270 -17Q200 -17 149 11T70 92T42 219Q42 294 69 347T148 429T270 458ZM270 376Q207 376 175 336T142 219Q142 144 174 104T270 64Q336 64 368 104T401
219Q401 295 369 335T270 376ZM140 518L114 576Q147 600 171 611T230 622Q259 622 280 612T319 592T358 582Q377 582 391 589T431 613L457 552Q429 526 406 516T352 505Q330 504 310 514T271 535T228 546Q204 546 187 539T140 518Z" />
<glyph unicode="&#xf6;" horiz-adv-x="542" d="M270 458Q342 458 393 430T473 348T501 219Q501 108 439 46T270 -17Q200 -17 149 11T70 92T42 219Q42 294 69 347T148 429T270 458ZM270 376Q207 376 175 336T142 219Q142 144 174 104T270 64Q336 64 368 104T401
219Q401 295 369 335T270 376ZM364 643Q390 643 408 624T427 579Q427 553 409 534T364 515Q337 515 319 534T300 579Q300 605 318 624T364 643ZM178 643Q204 643 223 624T242 579Q242 553 223 534T178 515Q152 515 133 534T114 579Q114 605 133 624T178 643Z" />
<glyph unicode="&#xf7;" horiz-adv-x="484" d="M242 204Q270 204 291 183T312 134Q312 105 291 85T242 64Q213 64 192 84T171 134Q171 162 192 183T242 204ZM242 537Q270 537 291 516T312 467Q312 438 291 417T242 396Q213 396 192 417T171 466Q171 495 192 516T242
537ZM434 348V263H50V348H434Z" />
<glyph unicode="&#xf8;" horiz-adv-x="542" d="M174 -73H117L364 508H421L174 -73ZM270 458Q342 458 393 430T473 348T501 219Q501 108 439 46T270 -17Q200 -17 149 11T70 92T42 219Q42 294 69 347T148 429T270 458ZM270 376Q207 376 175 336T142 219Q142 144
174 104T270 64Q336 64 368 104T401 219Q401 295 369 335T270 376Z" />
<glyph unicode="&#xf9;" horiz-adv-x="626" d="M443 26Q410 6 370 -5T295 -17Q196 -17 150 26T104 162V361H24V440H205V178Q205 121 227 95T299 69Q326 69 358 77T414 99V361H334V440H515V96L605 65L579 -20L443 26ZM286 500L132 675L202 728L331 531L286 500Z" />
<glyph unicode="&#xfa;" horiz-adv-x="626" d="M443 26Q410 6 370 -5T295 -17Q196 -17 150 26T104 162V361H24V440H205V178Q205 121 227 95T299 69Q326 69 358 77T414 99V361H334V440H515V96L605 65L579 -20L443 26ZM369 728L440 675L285 500L241 531L369 728Z" />
<glyph unicode="&#xfb;" horiz-adv-x="626" d="M443 26Q410 6 370 -5T295 -17Q196 -17 150 26T104 162V361H24V440H205V178Q205 121 227 95T299 69Q326 69 358 77T414 99V361H334V440H515V96L605 65L579 -20L443 26ZM290 658L449 549L418 501L291 573L159 502L128
549L290 658Z" />
<glyph unicode="&#xfc;" horiz-adv-x="626" d="M443 26Q410 6 370 -5T295 -17Q196 -17 150 26T104 162V361H24V440H205V178Q205 121 227 95T299 69Q326 69 358 77T414 99V361H334V440H515V96L605 65L579 -20L443 26ZM381 643Q407 643 425 624T444 579Q444 553
426 534T381 515Q354 515 336 534T317 579Q317 605 335 624T381 643ZM195 643Q221 643 240 624T259 579Q259 553 240 534T195 515Q169 515 150 534T131 579Q131 605 150 624T195 643Z" />
<glyph unicode="&#xfd;" horiz-adv-x="576" d="M151 -235Q132 -235 113 -232T71 -219L88 -142Q105 -147 118 -150T146 -153Q172 -153 189 -143T221 -106T255 -29L401 361H348L351 440H573V361H498L322 -81Q290 -160 249 -197T151 -235ZM277 -68L76 361H3V440H234V361H178L321
28L277 -68ZM372 728L443 675L288 500L244 531L372 728Z" />
<glyph unicode="&#xfe;" horiz-adv-x="538" d="M169 427Q190 439 218 447T276 455Q377 455 437 396T498 227Q498 154 470 99T390 13T269 -18Q240 -18 216 -14T169 -4V-136H253V-215H-15V-136H69V548L-28 581L0 665L169 607V427ZM169 83Q177 80 203 72T268 63Q331
63 363 107T396 227Q396 298 365 335T272 373Q247 373 226 367T190 352T169 339V83Z" />
<glyph unicode="&#xff;" horiz-adv-x="576" d="M151 -235Q132 -235 113 -232T71 -219L88 -142Q105 -147 118 -150T146 -153Q172 -153 189 -143T221 -106T255 -29L401 361H348L351 440H573V361H498L322 -81Q290 -160 249 -197T151 -235ZM277 -68L76 361H3V440H234V361H178L321
28L277 -68ZM384 643Q410 643 428 624T447 579Q447 553 429 534T384 515Q357 515 339 534T320 579Q320 605 338 624T384 643ZM198 643Q224 643 243 624T262 579Q262 553 243 534T198 515Q172 515 153 534T134 579Q134 605 153 624T198 643Z" />
<glyph unicode="&#x2013;" horiz-adv-x="572" d="M45 277H527V190H45V277Z" />
<glyph unicode="&#x2014;" horiz-adv-x="793" d="M45 276H748V189H45V276Z" />
<glyph unicode="&#x2018;" horiz-adv-x="207" d="M163 577Q164 577 156 565T136 534T116 499Q146 493 160 474T175 432Q175 400 154 381T100 361Q70 361 47 384T24 438Q24 469 38 498T71 551T106 592T127 613L163 577Z" />
<glyph unicode="&#x2019;" horiz-adv-x="208" d="M44 397Q44 397 52 409T72 439T91 474Q62 480 48 499T33 541Q33 573 54 592T107 612Q137 612 160 590T183 535Q183 504 170 475T137 422T102 382T80 361L44 397Z" />
<glyph unicode="&#x201a;" horiz-adv-x="212" d="M45 -92Q45 -92 51 -81T66 -53T83 -18Q60 -13 46 6T32 47Q32 80 54 100T108 120Q139 120 163 97T187 41Q187 10 172 -21T138 -79T104 -120T89 -136L45 -92Z" />
<glyph unicode="&#x201c;" horiz-adv-x="405" d="M163 577Q164 577 156 565T136 534T116 499Q130 496 143 485T166 459T175 432Q175 400 154 381T100 361Q70 361 47 383T24 438Q24 468 38 497T71 551T106 592T127 613L163 577ZM361 577Q362 577 354 565T334 534T314
499Q327 496 340 485T363 459T373 432Q373 400 352 381T298 361Q269 361 246 383T222 438Q222 468 235 497T268 551T304 592T325 613L361 577Z" />
<glyph unicode="&#x201d;" horiz-adv-x="405" d="M44 397Q44 397 52 409T71 439T91 475Q78 478 64 489T41 515T32 541Q32 573 53 593T107 613Q137 613 160 590T183 536Q183 504 170 475T137 422T101 382T80 361L44 397ZM242 397Q242 397 250 409T269 439T289 475Q275
478 262 489T239 515T230 541Q230 573 251 593T305 613Q334 613 357 590T381 536Q381 505 367 476T334 422T299 382T278 361L242 397Z" />
<glyph unicode="&#x201e;" horiz-adv-x="399" d="M44 -83Q48 -79 56 -67T74 -38T91 -5Q61 0 47 19T32 61Q32 93 53 113T106 133Q136 133 159 110T183 56Q183 24 169 -5T136 -58T101 -98T80 -119L44 -83ZM235 -83Q240 -78 248 -66T266 -37T283 -5Q253 0 239 19T224
61Q224 93 245 113T298 133Q328 133 351 110T375 56Q375 25 361 -4T328 -58T293 -98T272 -119L235 -83Z" />
<glyph unicode="&#x2022;" horiz-adv-x="328" d="M164 445Q199 445 228 428T274 382T291 318Q291 283 274 254T228 208T164 191Q129 191 100 208T54 254T37 318Q37 353 54 382T100 428T164 445Z" />
<glyph unicode="&#x2039;" horiz-adv-x="223" d="M150 -6L-7 217L150 441L215 395L94 217L215 40L150 -6Z" />
<glyph unicode="&#x203a;" horiz-adv-x="222" d="M72 -6L7 40L128 217L7 395L72 441L228 217L72 -6Z" />
</font>
</defs>
</svg>
